<!-- Generator: Adobe Illustrator 21.0.0, SVG Export Plug-In  -->
<svg version="1.1"
	 xmlns="http://www.w3.org/2000/svg" xmlns:xlink="http://www.w3.org/1999/xlink" xmlns:a="http://ns.adobe.com/AdobeSVGViewerExtensions/3.0/"
	 x="0px" y="0px" width="338.1px" height="477.8px" viewBox="0 0 338.1 477.8"
	 style="overflow:scroll;enable-background:new 0 0 338.1 477.8;" xml:space="preserve">
<style type="text/css">
	.st0{fill:#FDC89F;}
	.st1{fill:#872523;}
	.st2{fill:#FEFEFE;stroke:#872523;stroke-width:5;stroke-miterlimit:10;}
	.st3{fill:#C7B299;}
	.st4{fill-rule:evenodd;clip-rule:evenodd;fill:#00ADEF;}
	.st5{fill:#FEFEFE;}
	.st6{opacity:0.4;}
	.st7{opacity:0.6;}
	.st8{fill:#FFDA33;}
	.st9{fill-rule:evenodd;clip-rule:evenodd;fill:#FEFEFE;}
	.st10{fill-rule:evenodd;clip-rule:evenodd;fill:#C7B299;}
	.st11{fill-rule:evenodd;clip-rule:evenodd;fill:#FFFFFF;}
	.st12{fill-rule:evenodd;clip-rule:evenodd;fill:#FFCD00;}
	.st13{fill-rule:evenodd;clip-rule:evenodd;fill:#FDD3AE;}
	.st14{fill-rule:evenodd;clip-rule:evenodd;fill:#FDC89F;}
	.st15{fill-rule:evenodd;clip-rule:evenodd;fill:#872523;}
	.st16{fill-rule:evenodd;clip-rule:evenodd;fill:#FD9C01;}
	.st17{fill-rule:evenodd;clip-rule:evenodd;fill:#F56E80;}
	.st18{fill:#872523;stroke:#872523;stroke-width:4;stroke-miterlimit:10;}
	.st19{fill:#EAF3FB;}
	.st20{fill:#FFFFFF;}
	.st21{fill:#C0D500;}
	.st22{fill:#D3DC00;}
	.st23{fill:#93B607;}
	.st24{fill:#859B00;}
</style>
<defs>
</defs>
<g>
	<path class="st0" d="M283.4,347c-7.1,0-12.9-3.2-15.2-8.3c-1.9-4.3,1-7.1,8.6-13c2.9-2.2,6.1-4.7,9-7.7c3.5-3.6,7-5.5,10.2-5.5
		c4.2,0,8.2,3.3,10.7,8.9c1.7,3.8,1.4,8.3-0.9,12.6c-2.4,4.5-6.6,8.3-11.8,10.7C290.6,346.1,286.9,347,283.4,347z"/>
	<path class="st1" d="M296,314.9L296,314.9c3.8,0,6.8,3.8,8.4,7.4c1.4,3.1,1.1,6.8-0.8,10.4c-2.1,4-5.9,7.4-10.6,9.6
		c-3.1,1.4-6.5,2.1-9.6,2.1c-6.1,0-11-2.6-12.9-6.9c-1.1-2.4,0.3-4.2,7.9-10c2.9-2.3,6.3-4.9,9.3-7.9
		C290.6,316.5,293.5,314.9,296,314.9 M296,309.9c-3.6,0-7.7,1.8-12,6.2c-9.1,9.4-22.3,14.2-18.1,23.5c2.8,6.3,9.7,9.8,17.5,9.8
		c3.8,0,7.8-0.8,11.7-2.6c11.9-5.4,18.1-17.3,13.9-26.6C306.4,314.5,301.8,309.9,296,309.9L296,309.9z"/>
</g>
<path class="st2" d="M219.8,303.9c0,0,20.3,21.8,25.6,25.1c11,6.7,25-9.2,29.3-4c2.1,2.6,19.7,18.4,19.7,18.4s3.1,3.4,2.1,5.8
	c-0.9,2.4-36.5,37.7-58.3,23c-11.8-8-25.3-20.6-25.3-20.6S207.6,312.2,219.8,303.9z"/>
<path class="st3" d="M296.5,349.2c0.6-1.6-0.6-3.7-1.4-4.9c-13,13.3-35.1,20.5-47,18.6c-12.8-2-17.5-21.8-17.5-21.8
	c-7.7-5-13.7-2.8-18.3,2.9c0.3,4.6,0.8,7.6,0.8,7.6s13.4,12.5,25.3,20.6C260,386.9,295.6,351.5,296.5,349.2z"/>
<g>
	<g>
		<g>
			<g>
				<path class="st4" d="M103,320.8c0,0-22,38.8-70.3,77.4c-5.5,4.4-5.4,9.2,0.2,12.9c18,11.8,65,33.1,148.8,24.7
					c3.4-0.3,6.5-2.5,7.5-5.8c5.5-17.1,20.4-74.2-8.9-121.1C180.3,308.9,110.4,302,103,320.8z"/>
			</g>
		</g>
	</g>
	<g>
		<g>
			<g>
				<path class="st1" d="M144.5,440.7c-64,0-99.7-18.2-113.2-27.1c-4.5-2.9-5.5-6.2-5.6-8.4c-0.1-2.3,0.7-5.8,5.2-9.3
					c45.7-36.5,67.9-73.7,69.5-76.4c3.8-9,18.2-13.8,44-14.7c18.4-0.6,36.1,1.1,36.3,1.1c0.9,0.1,1.8,0.6,2.3,1.4
					c30,48.1,14.6,106.8,9.2,123.7c-1.4,4.3-5.3,7.4-10.1,7.8C168.6,440.1,156.1,440.7,144.5,440.7z M153.5,310.6
					c-22,0-44.3,2.8-47.7,11.3c-0.1,0.1-0.1,0.3-0.2,0.4c-0.2,0.4-22.9,39.8-71,78.3c-1.9,1.5-3,3.1-2.9,4.4c0.1,1.6,1.9,3,2.9,3.7
					c13.1,8.6,47.5,26.1,109.8,26.1c11.4,0,23.7-0.6,37-1.9c2.4-0.2,4.3-1.7,5-3.7c5.2-16.1,19.8-71.7-7.8-117.4
					C171.1,311,162.3,310.6,153.5,310.6z M103,320.8L103,320.8L103,320.8z"/>
			</g>
		</g>
	</g>
</g>
<g>
	<path class="st5" d="M202.7,290.3h-67.1c0,0-61.8,29.1-8.1,171.7h32.3l8.1-51.2l1.3-0.2l1.3,0.2l8,51.2h32.1
		C264.2,319.4,202.7,290.3,202.7,290.3z"/>
</g>
<g class="st6">
	<path class="st3" d="M227.2,323.8c6,23.2,5.2,59.3-16.1,114.4c0,0,0,0,0,0.1c-1.2,3-6.6,5.5-14.8,5.5c-8.2,0-13.7-2.5-14.6-5.5
		c-0.1-0.2-0.1-0.3-0.2-0.6l-5.4-28.9c-0.3-1.8-1.9-3.2-3.8-3.3l-3-0.1h0l-3.1,0.1c-1.8,0.1-3.3,1.4-3.7,3.1l-5.6,29.6
		c-0.9,3.1-6.7,5.6-14.9,5.6c-8.2,0-13.6-2.7-14.9-5.6c-21.3-54.9-22.2-90.9-16.2-114.1c-8.3,25.3-9.8,67.9,16.5,137.8
		c0,0.1,0.1,0.1,0.2,0.1h32.1c0.1,0,0.1-0.1,0.2-0.1l8.1-51c0-0.1,0.1-0.1,0.1-0.1l1.2-0.2c0,0,0,0,0.1,0l1.2,0.2
		c0.1,0,0.1,0.1,0.1,0.1l8,51c0,0.1,0.1,0.1,0.2,0.1h31.9c0.1,0,0.1,0,0.2-0.1C237.1,391.7,235.5,349.1,227.2,323.8z"/>
</g>
<g>
	<path class="st1" d="M210.8,465h-32.1c-1.5,0-2.7-1.1-3-2.5l-6.4-40.8l-6.5,40.8c-0.2,1.5-1.5,2.5-3,2.5h-32.3
		c-1.2,0-2.4-0.8-2.8-1.9c-22.5-59.8-28-107.4-16.1-141.4c9.1-26,25.1-33.8,25.8-34.1c0.4-0.2,0.8-0.3,1.3-0.3h67.1
		c0.4,0,0.9,0.1,1.3,0.3c0.7,0.3,16.6,8.1,25.6,34.1c11.8,34,6.4,81.5-16,141.3C213.1,464.2,212,465,210.8,465z M181.2,459h27.5
		c47.9-129.6-1-162.4-6.7-165.7h-65.6c-2.7,1.5-15.1,9.6-22.3,31c-7.5,22.2-10.9,63.6,15.6,134.7h27.7l7.7-48.7
		c0.2-1.3,1.2-2.3,2.5-2.5l1.3-0.2c0.3-0.1,0.7-0.1,1,0l1.3,0.2c1.3,0.2,2.3,1.2,2.5,2.5L181.2,459z"/>
</g>
<g>
	<g>
		<g>
			<path class="st4" d="M169.5,280.5c-0.1,0-0.2,0-0.2,0c0,0-0.1,0-0.1,0c0,0-0.1,0-0.1,0c-0.1,0-0.2,0-0.2,0
				c-28.6,0.2-60.8,19.4-67.6,45.6c2.4-5.2,5-9,11-10.9c15.1-4.7,33.3-2,57.1-2c0.5,0,0.7,0,1.3,0h0.3c22.8-0.1,40.4-2.8,55.1,1.8
				c6,1.9,7.9,1.5,10.2,6.6C229.2,301.8,198,280.7,169.5,280.5z"/>
		</g>
	</g>
	<g class="st7">
		<g>
			<path class="st4" d="M226.5,306.2c-13.6-15.5-36.4-25.6-57.3-25.7c-0.1,0-0.2,0-0.2,0c0,0-0.1,0-0.1,0c0,0-0.1,0-0.1,0
				c-0.1,0-0.2,0-0.2,0c-20.6,0.2-43.2,10-56.9,25.2c28.2,6.3,57,5.6,57,5.6S198,312.6,226.5,306.2z"/>
		</g>
	</g>
	<g>
		<g>
			<path class="st1" d="M101.2,328.1c-0.2,0-0.4,0-0.7-0.1c-1-0.3-1.6-1.4-1.3-2.4c3.4-12.8,12.8-24.8,26.5-33.7
				c12.9-8.4,28.6-13.3,43.1-13.4l0.3,0l0.1,0l0.1,0l0.2,0l0.1,0c14.4,0.1,30,4.9,42.9,13.3c13.7,8.9,23.1,20.7,26.5,33.5
				c0.3,1,3.7,1.4,2.6,1.7c-1,0.3-3.2-0.3-3.6-1.3c-2.2-4.9-7.4-7.2-12.6-8.8c-10.2-3.2-22.4-2.7-36.5-2.2c-5.7,0.2-11.6,0.5-18,0.5
				h-1.6c-6.8,0-13-0.2-19-0.4c-14.5-0.5-27-0.9-37.4,2.4c-5.2,1.6-7.5,4.8-9.8,9.8C102.7,327.7,102,328.1,101.2,328.1z
				 M169.1,282.5l-0.3,0c-21.9,0.2-48.4,12.7-60.5,32.1c1-0.5,2-0.9,3.2-1.3c11.1-3.5,24-3.1,38.8-2.5c6,0.2,12.2,0.4,18.9,0.4h1.6
				c6.3,0,12.2-0.3,17.8-0.5c14.5-0.6,27-1.1,37.9,2.3c1.2,0.4,2.2,0.8,3.2,1.3c-12-19.3-38.4-31.7-60.3-31.8l-0.3,0
				C169.2,282.5,169.1,282.5,169.1,282.5z"/>
		</g>
	</g>
</g>
<g>
	<g>
		<g>
			<g>
				<path class="st4" d="M169.1,317.9c16.6,0,30.1,13.5,30.1,30.1c0,16.6-13.5,30.1-30.1,30.1c-16.6,0-30.1-13.5-30.1-30.1
					C139,331.4,152.4,317.9,169.1,317.9z"/>
			</g>
		</g>
		<g>
			<g>
				<path class="st1" d="M169.1,380.1c-17.7,0-32.1-14.4-32.1-32.1c0-17.7,14.4-32.1,32.1-32.1c17.7,0,32.1,14.4,32.1,32.1
					C201.2,365.7,186.8,380.1,169.1,380.1z M169.1,319.9c-15.5,0-28.1,12.6-28.1,28.1s12.6,28.1,28.1,28.1s28.1-12.6,28.1-28.1
					S184.6,319.9,169.1,319.9z"/>
			</g>
		</g>
	</g>
	<g>
		<g>
			<g>
				<path class="st8" d="M168.7,373.4c-1.4,0-2.5-1.1-4.9-4.7c-1.4-2.2-3-4.4-3.9-5.8c-0.9-1.3-1-1.4-1-1.5l0-0.1
					c-0.3-0.4-0.8-1.4-0.5-2.6c0-0.1,0-0.1,0.1-0.2c0,0-0.1,0-0.1,0c-1.8,0-2.9-1.2-3.3-1.9c-1.8-3.1-3.9-6.5-4.2-6.9
					c-1.2-1.7-1.1-3.8,0.4-5l0.2-0.2c10.8-6.7,19.8-12.9,26.5-18.5c1-0.9,2.3-1.8,3.7-1.8c0.9,0,2.6,0.4,3.4,3.2
					c3.9,13.3,4.1,15.4,1.2,17.1c-0.1,0.1-0.2,0.1-0.3,0.2c-0.5,0.3-2,1.1-4.9,2.5c3.8,0.4,4,2.8,4.5,7.8l0,0.3
					c0.2,1.9-1.3,3.3-2.7,3.8l-12.4,4.8c0.1,1,0.3,2.3,0.4,3.7c0.3,2.9,0.2,4.2-0.6,5C170,373.1,169.4,373.4,168.7,373.4
					L168.7,373.4z M179.8,347.8c-2.2,1.1-5.1,2.4-8.7,4.1c3.9-1.7,7.4-3.2,7.8-3.4c-0.1,0.1-0.4,0.3-0.5,0.7
					c-0.1,0.3-0.1,0.6,0.1,0.9L179.8,347.8z"/>
			</g>
		</g>
		<g>
			<path class="st1" d="M181.6,326.2c0.6,0,1.2,0.5,1.5,1.7c4.4,14.9,3.3,14,1.8,15.1c-1.6,1.1-24.2,11.6-25.1,12
				c-0.9,0.5-0.9,1.4-0.9,1.4c-0.2,0-0.4,0.1-0.6,0.1c-1.2,0-1.6-0.9-1.6-0.9s-3.9-6.6-4.3-7.1c-0.4-0.6-0.8-1.6,0-2.3
				c14.9-9.1,22.8-15.4,26.8-18.6C180,326.8,180.9,326.2,181.6,326.2 M180.2,349.2c3,0.1,3,0.7,3.5,6.4c0.1,1.2-1.4,1.7-1.4,1.7
				l-13.9,5.4c0,0,0.3,2.5,0.6,5.2c0.3,2.4,0.2,3.6-0.3,3.6c-0.6,0-1.6-1.3-3.3-3.8c-2.3-3.4-4.7-7-4.9-7.2
				c-0.2-0.4-0.9-1.2,0.2-1.7c1.6-0.9,17.6-7.8,18.9-8.4C180.7,350,180.2,349.2,180.2,349.2 M181.6,322.2c-2,0-3.6,1.1-5,2.2
				c-6.7,5.5-15.5,11.7-26.3,18.3l-0.5,0.3c-2.3,1.9-2.6,5.1-0.8,7.7c0.3,0.5,2.3,3.8,4.1,6.8c0.5,1,1.6,2.1,3,2.6
				c0.2,1,0.6,1.8,0.8,2.1l0,0c0.1,0.2,0.3,0.4,1.1,1.7c0.9,1.3,2.5,3.6,3.9,5.7c2.2,3.4,3.9,5.6,6.6,5.6c1.2,0,2.4-0.5,3.2-1.4
				c1.5-1.7,1.4-4,1.1-6.6c-0.1-0.7-0.2-1.5-0.2-2.1l10.9-4.2c2.1-0.8,4.3-2.9,4-5.9l0-0.3c-0.3-3.1-0.6-5.8-2-7.6
				c0.8-0.4,1.3-0.7,1.5-0.9c0.1,0,0.1-0.1,0.2-0.1c4.6-2.8,3.3-7-0.4-19.4C185.7,322.6,182.5,322.2,181.6,322.2L181.6,322.2z"/>
		</g>
	</g>
</g>
<g>
	<g>
		<path class="st9" d="M142.8,449.2c-12.3,0-22.2,7.7-22.2,17.3c0,9.5,10.7,8.3,23,8.3c12.3,0,21.5,1.3,21.5-8.3
			C165,456.9,155.1,449.2,142.8,449.2z"/>
	</g>
	<g>
		<path class="st9" d="M195.3,449.2c-12.3,0-22.2,7.7-22.2,17.3c0,9.5,10.7,8.3,23,8.3c12.3,0,21.5,1.3,21.5-8.3
			C217.6,456.9,207.6,449.2,195.3,449.2z"/>
	</g>
	<g class="st6">
		<path class="st10" d="M143.5,466.8c-10.9,0-20.5,1.3-22.5-6.8c-0.3,1.4-0.4,2.8-0.4,4.3c0,12.1,10.7,10.5,23,10.5
			s21.5,1.6,21.5-10.5c0-1.4-0.1-2.8-0.4-4.1C162.8,468,154.3,466.8,143.5,466.8z"/>
	</g>
	<g class="st6">
		<path class="st10" d="M217.2,460.1c-1.9,8-10.3,6.7-21.1,6.7c-10.9,0-20.5,1.3-22.5-6.8c-0.3,1.4-0.4,2.8-0.4,4.3
			c0,12.1,10.7,10.5,23,10.5c12.3,0,21.5,1.6,21.5-10.5C217.6,462.8,217.4,461.4,217.2,460.1z"/>
	</g>
	<g>
		<path class="st1" d="M150.9,477.8c-1.1,0-2.3,0-3.5,0c-2.5,0-5.2,0-7.8,0c-8.2,0.1-15.3,0.2-19.2-3.8c-1.9-1.9-2.8-4.4-2.8-7.5
			c0-11.2,11.3-20.3,25.2-20.3s25.2,9.1,25.2,20.3c0,3.3-1,5.9-2.8,7.8C162,477.4,157.1,477.8,150.9,477.8z M142.8,452.2
			c-10.6,0-19.2,6.4-19.2,14.3c0,2,0.6,2.8,1,3.3c2.2,2.2,8.4,2.1,15,2c2.6,0,5.4,0,7.9,0c6,0.1,11.6,0.1,13.5-1.8
			c0.3-0.3,1.1-1,1.1-3.5C162,458.6,153.4,452.2,142.8,452.2z"/>
	</g>
	<g>
		<path class="st1" d="M203.4,477.8c-1.1,0-2.3,0-3.5,0c-2.5,0-5.2,0-7.8,0c-8.2,0.1-15.3,0.2-19.2-3.8c-1.9-1.9-2.8-4.4-2.8-7.5
			c0-11.2,11.3-20.3,25.2-20.3s25.2,9.1,25.2,20.3c0,3.3-1,5.9-2.8,7.8C214.6,477.4,209.6,477.8,203.4,477.8z M195.3,452.2
			c-10.6,0-19.2,6.4-19.2,14.3c0,2,0.6,2.8,1,3.3c2.2,2.2,8.4,2.1,15,2c2.6,0,5.4,0,7.9,0c6,0.1,11.6,0.1,13.5-1.8
			c0.3-0.3,1.1-1,1.1-3.5C214.6,458.6,206,452.2,195.3,452.2z"/>
	</g>
</g>
<g>
	<g>
		<path class="st11" d="M291.2,100.8c-35.6-65.6-122.3-61.8-122.3-61.8s-86.6-2.8-122.1,62.4c-14.9,27.4-21.1,59.2-19.5,92.6
			c2.2,46.2,18.3,80.5,64.4,97.4c36.2,13.3,77.2,11.9,77.2,11.9s41,2.6,77.3-10.8c46.3-17,62.3-51.6,64.6-98.2
			C312.4,160.5,306.2,128.4,291.2,100.8z"/>
	</g>
	<g>
		<path class="st1" d="M177.7,306.4c-4.9,0-8-0.2-8.8-0.2c-3.1,0.1-42.6,1-78.2-12.1c-22.9-8.4-39.3-21.1-50.2-39
			c-9.7-15.8-15-35.8-16.2-61.1c-1.7-34.7,5.2-67.3,19.9-94.2c14.9-27.4,41.3-47.1,76.2-57.1c25.5-7.3,46.6-6.9,48.5-6.9
			c1.9-0.1,23-0.7,48.6,6.4c35,9.7,61.4,29.4,76.3,57l0,0c14.7,27.2,21.6,60,19.9,95c-1.2,25.5-6.5,45.6-16.2,61.6
			c-10.9,18-27.4,30.8-50.3,39.3C220.7,305,192,306.4,177.7,306.4z M169,300.2l0.1,0c0.4,0,40.8,2.4,76.1-10.6
			c40.8-15,60.2-44.5,62.6-95.5c1.6-33.9-5-65.7-19.2-91.9C254.3,39,169.9,41.9,169.1,41.9l-0.1,0l-0.1,0c-0.2,0-21.6-0.6-47,6.7
			c-23.2,6.6-54.6,21.4-72.4,54.1c-14.2,26-20.8,57.5-19.2,91c2.4,50.6,21.7,79.8,62.5,94.7c35.2,12.9,75.7,11.7,76.1,11.7
			L169,300.2z"/>
	</g>
</g>
<g>
	<g>
		<path class="st11" d="M291.2,101.8c-35.6-65.6-122.3-61.8-122.3-61.8s-86.6-2.8-122.1,62.4c-14.9,27.4-21.1,59.2-19.5,92.6
			c2.2,46.2,18.3,80.5,64.4,97.4c36.2,13.3,77.2,11.9,77.2,11.9s41,2.6,77.3-10.8c46.3-17,62.3-51.6,64.6-98.2
			C312.4,161.5,306.2,129.4,291.2,101.8z"/>
	</g>
	<g>
		<path class="st1" d="M177.7,307.4c-4.9,0-8-0.2-8.8-0.2c-3.1,0.1-42.6,1-78.2-12.1c-22.9-8.4-39.3-21.1-50.2-39
			c-9.7-15.8-15-35.8-16.2-61.1c-1.7-34.7,5.2-67.3,19.9-94.2c14.9-27.4,41.3-47.1,76.2-57.1c25.5-7.3,46.6-6.9,48.5-6.9
			c1.9-0.1,23-0.7,48.6,6.4c35,9.7,61.4,29.4,76.3,57l0,0c14.7,27.2,21.6,60,19.9,95c-1.2,25.5-6.5,45.6-16.2,61.6
			c-10.9,18-27.4,30.8-50.3,39.3C220.7,306,192,307.4,177.7,307.4z M169,301.2l0.1,0c0.4,0,40.8,2.4,76.1-10.6
			c40.8-15,60.2-44.5,62.6-95.5c1.6-33.9-5-65.7-19.2-91.9C254.3,40,169.9,42.9,169.1,42.9l-0.1,0l-0.1,0c-0.2,0-21.6-0.6-47,6.7
			c-23.2,6.6-54.6,21.4-72.4,54.1c-14.2,26-20.8,57.5-19.2,91c2.4,50.6,21.7,79.8,62.5,94.7c35.2,12.9,75.7,11.7,76.1,11.7
			L169,301.2z"/>
	</g>
</g>
<g>
	<g>
		<g>
			<path class="st12" d="M322,149.8l-14.7-4.7c3.2,15.7,4.4,32.2,3.6,49.1c-1.1,23-5.6,43.1-15.4,59.5l14.9-1.3
				c6.9-0.5,15.5-4.9,16.4-13l4-35.6l0.2-2l4-35.7C336,158,328.6,151.9,322,149.8z"/>
			<path class="st1" d="M289.9,257.3l3-5c8.9-15,13.8-34,15-58.1c0.8-16.8-0.4-33.1-3.5-48.4l-1-5l19.5,6.3
				c8.3,2.6,16.2,10.1,15.2,19.5l-8.3,73.3c-1.1,9.4-10.4,15-19.1,15.7L289.9,257.3z M311.2,149.5c2.5,14.3,3.4,29.4,2.7,44.9
				c-1.1,22.6-5.4,40.9-13.1,55.9l9.3-0.8c6.1-0.5,13-4.3,13.7-10.3l8.3-73.3c0.7-6.1-5.2-11.3-11-13.1l0,0L311.2,149.5z"/>
		</g>
		<g>
			<path class="st12" d="M302.4,235.5c-2.2,6.5-4.9,12.6-8.3,18.3l14.9-1.3c6.9-0.5,15.5-4.9,16.4-13l1.6-13.9
				C320.3,231.3,311.8,235,302.4,235.5z"/>
		</g>
	</g>
	<g>
		<g>
			<path class="st12" d="M16.2,149.8l14.7-4.7c-3.2,15.7-4.4,32.2-3.6,49.1c1.1,23,5.6,43.1,15.4,59.5l-14.9-1.3
				c-6.9-0.5-15.5-4.9-16.4-13l-4-35.6l-0.2-2l-4-35.7C2.2,158,9.5,151.9,16.2,149.8z"/>
			<path class="st1" d="M48.2,257.3l-20.7-1.8c-8.7-0.7-18.1-6.3-19.1-15.7l-8.3-73.3c-1.1-9.4,6.8-16.9,15.2-19.5l19.5-6.3l-1,5
				c-3.2,15.3-4.3,31.6-3.5,48.4c1.2,24.1,6.1,43.2,15,58.1L48.2,257.3z M26.9,149.5l-9.9,3.2c-5.8,1.8-11.7,7-11,13.1l8.3,73.3
				c0.7,6.1,7.5,9.9,13.6,10.3l9.3,0.8c-7.7-15-12-33.3-13.1-55.9C23.5,178.9,24.4,163.8,26.9,149.5z"/>
		</g>
		<g>
			<path class="st12" d="M35.7,235.5c2.2,6.5,4.9,12.6,8.3,18.3l-14.9-1.3c-6.9-0.5-15.5-4.9-16.4-13l-1.6-13.9
				C17.8,231.3,26.3,235,35.7,235.5z"/>
		</g>
	</g>
</g>
<g class="st6">
	<path class="st10" d="M302.8,128.3c0.2,5.1,0.1,10.2-0.1,15.3c-0.2,4.4-0.6,8.7-1.1,12.8c-1.2,9.6-13.2,13.1-19.6,5.8
		c-0.1-0.1-0.1-0.1-0.2-0.2C249,125,169,116.5,169,116.5S89,125.6,56.3,162.3c-0.1,0.1-0.1,0.1-0.2,0.2c-6.4,7.2-18.3,3.7-19.5-5.8
		c-0.6-4.3-0.9-8.8-1.2-13.4c-0.2-5-0.3-9.9-0.1-14.8c-6.5,19.6-9.1,40.8-8,62.8c2.2,44.3,18.3,77.2,64.4,93.4
		c36.2,12.7,77.2,11.4,77.2,11.4s41,2.5,77.3-10.4c46.3-16.3,62.3-49.5,64.6-94.2C311.9,169.5,309.4,148.1,302.8,128.3z
		 M241.8,233.8c-34.2,12.3-72.9,9.9-72.9,9.9s-38.6,1.3-72.8-10.9c-22.7-8.1-37.6-20.5-47.1-36.6c2.9-10.4,7.2-20.2,13.1-28.1
		C93.3,126.7,169,116.5,169,116.5s75.8,9.6,106.9,51.3c6,8.1,10.4,18.2,13.3,28.8C279.7,213,264.7,225.6,241.8,233.8z"/>
</g>
<g>
	<path class="st13" d="M275.9,167.8C244.8,126.1,169,116.5,169,116.5s-75.7,10.2-106.8,51.6c-13,17.4-18.5,44.4-17.1,65.6
		c2,29.4,16,51.2,56.3,61.9c31.7,8.4,67.5,7.5,67.5,7.5s35.9,1.6,67.6-6.9c40.4-10.8,54.5-32.8,56.5-62.4
		C294.4,212.6,289,185.4,275.9,167.8z"/>
	<path class="st1" d="M176.7,306.4c-4.3,0-7.1-0.1-7.7-0.1c-2.6,0-37.1,0.6-68.2-7.6c-37.7-10-56.3-30.6-58.6-64.6
		c-1.2-18.7,2.6-47.6,17.7-67.6c31.5-41.9,105.6-52.4,108.8-52.8l0.4-0.1l0.4,0c3.1,0.4,77.5,10.2,109,52.5
		c15.1,20.2,18.9,49.3,17.7,68.1c-2.3,34.3-20.9,55-58.7,65.1C214.1,305.5,189.1,306.4,176.7,306.4z M169,300.3l0.1,0
		c0.4,0,35.8,1.5,66.7-6.8c35.4-9.5,52.1-27.9,54.2-59.7c1.3-19.2-3.3-46.5-16.5-64.2l0,0c-28.9-38.7-98.7-49.2-104.5-50.1
		c-5.9,0.9-75.6,12-104.4,50.4c-13.1,17.5-17.7,44.6-16.5,63.6c2.1,31.6,18.8,49.8,54.1,59.2c30.9,8.2,66.3,7.5,66.7,7.4L169,300.3z
		"/>
</g>
<g class="st7">
	<path class="st14" d="M293,220c-2,29.6-16,51.6-56.5,62.4c-31.7,8.5-67.6,6.9-67.6,6.9s-35.8,0.9-67.5-7.5
		c-40.4-10.7-54.4-32.6-56.3-61.9c0-0.1,0-0.2,0-0.3c-0.3,4.6-0.3,9,0,13.3c2,29.4,16,51.2,56.3,61.9c31.7,8.4,67.5,7.5,67.5,7.5
		s35.9,1.6,67.6-6.9c40.4-10.8,54.5-32.8,56.5-62.4c0.3-4.3,0.3-8.7,0-13.3C293,219.8,293,219.9,293,220z"/>
</g>
<g>
	<g>
		<g>
			<path class="st15" d="M141.8,166.2c-0.7-0.4-13-8.7-34-9.1c-20.1,0-26.3,8.1-24.3,15.1c1.8,6.4,11.5,2.1,11.5,2.1
				c8.3-3.7,35.7-6.8,42.1-5.3C144.6,170.6,142.4,166.6,141.8,166.2z"/>
		</g>
	</g>
	<g>
		<g>
			<path class="st15" d="M230.1,156.9c-21,1.1-33,9.8-33.6,10.2c-0.7,0.4-2.7,4.5,4.8,2.5c6.3-1.7,33.8,0.6,42.2,4
				c0,0,9.8,4,11.4-2.5C256.6,164.1,250.2,156.2,230.1,156.9z"/>
		</g>
	</g>
</g>
<g class="st7">
	<path class="st14" d="M169.1,220.5c5.8,0,10.5,4.7,10.5,10.5c0,5.8-4.7,9.3-10.5,9.3c-5.8,0-10.5-3.5-10.5-9.3
		C158.5,225.3,163.2,220.5,169.1,220.5z"/>
</g>
<g class="st7">
	<path class="st14" d="M275.9,167.8C244.8,126.1,169,116.5,169,116.5s-75.7,10.2-106.8,51.6c-10.7,14.3-16.3,35-17.2,53.7
		c2.7-13.1,7.7-26,15.2-35.7c17.3-22.7,48.3-36,72.8-43.4c1.5,1.1,3.1,2.3,4.8,3.3c8.4,5.4,24.4,8.5,36,8.1l0,0c0.1,0,0.1,0,0.1,0
		s20-0.1,25.9-7.2c1.4-1.7,2.3-3.4,2.9-5.2c25.4,6.6,55.7,18.5,75.1,44c7.5,9.9,12.5,22.8,15.2,36
		C292.2,203,286.6,182.2,275.9,167.8z"/>
</g>
<g>
	<g>
		<g>
			<g>
				<path class="st11" d="M102.1,192c-18,6.6-18.6,20.6-15.2,32.6c2.1,7.3,6.6,12.9,10.6,16.4c6.5,5.6,15.8,9.6,25.5,8
					c7.9-1.3,16.6-6.5,20.2-16.4c8-22-9.1-34.8-10.4-36C130.1,194.5,117.3,186.4,102.1,192z"/>
			</g>
			<g>
				<g>
					<path class="st1" d="M103.3,195.2c-2.8,1-5.5,2.1-7.9,3.8c-2.3,1.6-4.3,3.7-5.7,6.2c-1.4,2.5-2.2,5.4-2.4,8.4
						c-0.2,3,0,6.1,0.6,9.2c0.5,3.1,1.5,6.1,3,8.9c1.4,2.8,3.3,5.4,5.5,7.7c4.4,4.6,10.2,8,16.5,9.4c1.6,0.4,3.2,0.5,4.8,0.6
						c1.6,0,3.2,0,4.8-0.3c3.2-0.5,6.3-1.6,9-3.2c2.8-1.6,5.2-3.7,7.2-6.3c2-2.5,3.3-5.4,4.1-8.5l0.6-2.3c0.2-0.8,0.2-1.6,0.4-2.3
						l0.2-1.2l0.1-0.6l0-0.6l0-2.3c-0.1-3.1-0.7-6.2-1.8-9c-1.1-2.8-2.7-5.5-4.6-7.8c-0.5-0.6-1-1.2-1.5-1.7
						c-0.5-0.6-1.1-1.1-1.6-1.6c-0.6-0.5-1.1-1-1.7-1.5l-1.9-1.6l0.2,0.2c-0.9-0.6-2-1.2-3.1-1.8c-0.5-0.3-1.1-0.5-1.7-0.8l-1.7-0.7
						c-2.3-0.8-4.7-1.4-7.1-1.7c-2.4-0.3-4.8-0.2-7.2,0C107.9,194,105.6,194.5,103.3,195.2z M101,188.9c2.8-1,5.7-1.9,8.7-2.1
						c3-0.2,6,0,8.9,0.5c2.9,0.5,5.7,1.5,8.4,2.7c1.3,0.6,2.6,1.3,3.9,2c1.3,0.8,2.4,1.6,3.7,2.6l0.1,0.1l0.1,0.1l0.8,0.8
						c0.3,0.3,0.6,0.6,0.9,0.9c0.6,0.6,1.2,1.2,1.8,1.9c0.6,0.7,1.1,1.3,1.6,2c0.5,0.7,1,1.4,1.5,2.1c1.9,2.9,3.4,6,4.3,9.3
						c1,3.3,1.2,6.8,1,10.1l-0.3,2.5l-0.1,0.6l-0.1,0.6l-0.3,1.2c-0.2,0.8-0.3,1.6-0.6,2.4l-0.8,2.4c-1,3.1-2.7,6.1-4.9,8.6
						c-2.1,2.5-4.8,4.6-7.7,6.1c-2.9,1.5-6,2.6-9.3,3c-3.2,0.4-6.5,0.3-9.7-0.3c-6.4-1.3-12.3-4.5-17.2-8.9
						c-4.8-4.4-8.7-10.2-10.5-16.7c-1-3.2-1.6-6.5-1.8-10c-0.1-3.4,0.4-7.1,1.8-10.4c1.4-3.4,3.8-6.4,6.6-8.7
						C94.6,192,97.7,190.3,101,188.9z"/>
				</g>
			</g>
		</g>
		<g>
			<g>
				<path class="st15" d="M139.1,216.2c0,12-8.5,21.6-19.1,21.6c-10.5,0-19.1-9.7-19.1-21.6c0-12,8.5-21.6,19.1-21.6
					C130.5,194.5,139.1,204.2,139.1,216.2z"/>
			</g>
		</g>
		<g>
			<g>
				<path class="st11" d="M130.5,205.9c0,3.6-2.9,6.5-6.5,6.5c-3.6,0-6.5-2.9-6.5-6.5s2.9-6.5,6.5-6.5
					C127.6,199.4,130.5,202.3,130.5,205.9z"/>
			</g>
		</g>
	</g>
	<g>
		<g>
			<g>
				<path class="st11" d="M205.4,196.6c-1.3,1.3-18.4,14-10.4,36c3.6,9.9,12.2,15.1,20.2,16.4c9.7,1.6,19-2.3,25.5-8
					c4-3.5,8.6-9.1,10.6-16.4c3.4-12.1,2.8-26-15.2-32.6C220.9,186.4,208,194.5,205.4,196.6z"/>
			</g>
			<g>
				<g>
					<path class="st1" d="M227.9,193.7c-2.4-0.2-4.8-0.3-7.2,0c-2.4,0.3-4.8,0.9-7.1,1.7l-1.7,0.7c-0.6,0.3-1.1,0.5-1.7,0.8
						c-1.1,0.5-2.2,1.2-3.1,1.8l0.2-0.2l-1.9,1.6c-0.6,0.5-1.1,1-1.7,1.5c-0.5,0.5-1.1,1-1.6,1.6c-0.5,0.6-1,1.1-1.5,1.7
						c-1.9,2.4-3.5,5-4.6,7.8c-1.2,2.8-1.7,5.9-1.8,9l0,2.3l0,0.6l0.1,0.6l0.2,1.2c0.1,0.8,0.2,1.6,0.4,2.3l0.6,2.3
						c0.8,3.1,2.1,6,4.1,8.5c1.9,2.5,4.4,4.6,7.2,6.3c2.8,1.6,5.9,2.7,9,3.2c1.6,0.3,3.2,0.3,4.8,0.3c1.6-0.1,3.2-0.3,4.8-0.6
						c6.3-1.3,12.1-4.8,16.5-9.4c2.2-2.3,4.1-4.9,5.5-7.7c1.4-2.8,2.4-5.8,3-8.9c0.6-3.1,0.8-6.2,0.6-9.2c-0.2-3-1-5.9-2.4-8.4
						c-1.4-2.5-3.4-4.5-5.7-6.2c-2.4-1.6-5.1-2.8-7.9-3.8C232.6,194.5,230.2,194,227.9,193.7z M246.4,194.3c2.8,2.3,5.1,5.3,6.6,8.7
						c1.5,3.4,1.9,7,1.8,10.4c-0.1,3.5-0.8,6.8-1.8,10c-1.8,6.5-5.7,12.3-10.5,16.7c-4.9,4.4-10.8,7.6-17.2,8.9
						c-3.2,0.6-6.5,0.8-9.7,0.3c-3.2-0.4-6.4-1.5-9.3-3c-2.9-1.5-5.5-3.6-7.7-6.1c-2.2-2.5-3.9-5.4-4.9-8.6l-0.8-2.4
						c-0.3-0.8-0.4-1.6-0.6-2.4l-0.3-1.2L192,225l-0.1-0.6l-0.3-2.5c-0.1-3.4,0.1-6.8,1-10.1c0.9-3.3,2.4-6.5,4.3-9.3
						c0.5-0.7,1-1.4,1.5-2.1c0.5-0.7,1.1-1.3,1.6-2c0.6-0.7,1.2-1.3,1.8-1.9c0.3-0.3,0.6-0.6,0.9-0.9l0.8-0.8l0.1-0.1l0.1-0.1
						c1.2-1,2.4-1.8,3.7-2.6c1.2-0.8,2.5-1.4,3.9-2c2.7-1.2,5.5-2.1,8.4-2.7c2.9-0.5,5.9-0.7,8.9-0.5c3,0.2,5.9,1.1,8.7,2.1
						C240.4,190.3,243.5,192,246.4,194.3z"/>
				</g>
			</g>
		</g>
		<g>
			<g>
				<path class="st15" d="M218.2,194.5c10.5,0,19.1,9.7,19.1,21.6c0,12-8.5,21.6-19.1,21.6c-10.5,0-19.1-9.7-19.1-21.6
					C199.1,204.2,207.6,194.5,218.2,194.5z"/>
			</g>
		</g>
		<g>
			<g>
				<path class="st11" d="M214.1,199.4c3.6,0,6.5,2.9,6.5,6.5s-2.9,6.5-6.5,6.5c-3.6,0-6.5-2.9-6.5-6.5S210.5,199.4,214.1,199.4z"/>
			</g>
		</g>
	</g>
</g>
<g>
	<g>
		<path class="st16" d="M162.7,3.9c0,0,0.8,15.7-11.7,27.1c0,0-17.5,13.9-29.2,29.1c-10,13-22.7,52.4,15.9,76.9
			c10.2,6.5,31.2,9.7,42.5,7.4c0,0-5.7-3.7-9.5-12.8c-6.6-15.5,7.2-28.7,13.7-34.7c11.6-10.8,24.2-25.8,22.7-47.6
			C206,31.5,186.2,9.7,162.7,3.9z"/>
	</g>
	<g>
		<path class="st12" d="M201.8,33.2c3.1,5.4,5.1,10.9,5.4,16.2c1.5,21.8-11.1,36.9-22.7,47.6c-6.5,6-20.2,19.1-13.7,34.7
			c3.8,9.1,9.5,12.8,9.5,12.8c-1.9,0.4-4.1,0.6-6.4,0.7c0.1,0,0.1,0,0.1,0s20.8,0.3,21-8.4c0.2-7.2,6.1-10,13.6-14.6
			C225.1,112,241.6,71.5,201.8,33.2z"/>
	</g>
	<g class="st7">
		<path class="st12" d="M169.1,123.9c-0.1,2.8,0.4,5.8,1.7,8.9c3.8,9.1,9.5,12.8,9.5,12.8c-1.9,0.4-4.1,0.6-6.4,0.7
			c0.1,0,0.1,0,0.1,0s20.8,0.3,21-8.4c0.2-7.2,6.1-10,13.6-14.6c8.6-5.3,17.3-19,17.9-36.3C216.8,106.9,192.8,126.3,169.1,123.9z"/>
	</g>
	<g class="st7">
		<path class="st16" d="M170.8,132.7c-1.3-3.1-1.8-6-1.7-8.9c0,0,0,0,0,0c-42.7-5.3-53.6-29.4-56.3-41.1c-3.4,17.2,0,39.3,25.1,55.3
			c10.2,6.5,31.2,9.7,42.5,7.4C180.3,145.5,174.7,141.8,170.8,132.7z"/>
	</g>
	<g>
		<path class="st1" d="M171.7,148.3c-12.2,0-27.3-3.5-35.5-8.7c-15.1-9.6-24.1-22.1-26.8-37.4c-3-17.2,3.1-34.8,10.1-43.9
			c11.4-14.9,28.1-28.4,29.6-29.6C160.4,18.4,159.8,4.2,159.7,4l-0.2-4l3.9,1c24,5.9,45.4,28,46.7,48.2c1.6,23.7-12.8,39.9-23.7,50
			c-5.6,5.2-18.8,17.4-12.9,31.3c3.4,8,8.3,11.4,8.4,11.4l6,4l-7,1.5C178.2,148,175.1,148.3,171.7,148.3z M165.6,7.8
			c-0.6,5.8-2.9,16.7-12.5,25.4l-0.2,0.1c-0.2,0.1-17.4,13.9-28.6,28.6c-4.5,5.8-12.1,21.5-8.9,39.3c2.4,13.5,10.5,24.7,24.1,33.3
			c7.5,4.8,22.9,8,34.2,7.7c-1.8-2.2-3.9-5.3-5.6-9.3c-7.5-17.8,8.4-32.5,14.4-38.1c10.9-10.1,23.2-24.3,21.8-45.2
			C203.2,34.8,187.3,14.8,165.6,7.8z"/>
	</g>
	<g>
		<path class="st1" d="M174.5,148.2c-0.2,0-0.4,0-0.6,0l-0.7-0.1l-23.4-5.1l23.8-0.8c-1.8-2.2-3.9-5.3-5.6-9.3
			c-7.5-17.8,8.4-32.5,14.4-38.1c10.9-10.1,23.2-24.3,21.8-45.2c-0.3-4.6-2-9.8-5-14.9l-10.7-18.4l15.4,14.8
			c23.7,22.7,26.8,44.7,25.3,59.1c-1.9,18-11.4,29.9-19,34.5c-0.8,0.5-1.5,0.9-2.2,1.4c-6.6,4-9.8,6.1-9.9,10.8
			C197.7,147.5,179.6,148.2,174.5,148.2z M209.9,46.8c0.1,0.8,0.2,1.6,0.3,2.4c1.6,23.7-12.8,39.9-23.7,50
			c-5.6,5.2-18.8,17.4-12.9,31.3c2.9,6.7,6.8,10.2,8,11.1c5.5-0.8,10.3-2.5,10.4-5c0.2-8.2,6.3-11.9,12.8-15.8
			c0.7-0.4,1.4-0.9,2.2-1.3c6.9-4.3,14.6-15.2,16.2-30C224.3,78.9,222.6,63.5,209.9,46.8z"/>
	</g>
</g>
<path class="st1" d="M236.1,169.4c-25.9,0-47.4,19-51.3,43.8c-10.8-6.8-23.1-4.4-31.6-0.5c-4.1-24.5-25.5-43.3-51.2-43.3
	c-28.6,0-51.9,23.3-51.9,52c0,28.6,23.3,51.9,51.9,51.9c28.6,0,51.9-23.3,51.9-51.9c5.1-2.9,19.2-9.2,30.2,1.6
	c0.9,27.9,23.8,50.3,51.9,50.3c28.6,0,51.9-23.3,51.9-51.9C288.1,192.7,264.8,169.4,236.1,169.4z M102,265.3
	c-24.2,0-43.9-19.7-43.9-43.9c0-24.2,19.7-43.9,43.9-43.9s43.9,19.7,43.9,43.9C145.9,245.6,126.2,265.3,102,265.3z M236.1,265.3
	c-24.2,0-43.9-19.7-43.9-43.9c0-24.2,19.7-43.9,43.9-43.9c24.2,0,43.9,19.7,43.9,43.9C280,245.6,260.3,265.3,236.1,265.3z"/>
<g>
	<g>
		<g>
			<g>
				<path class="st17" d="M169.4,268c-3.1,0-11.5-2-11.8-6.4c-0.1-1.4,0.1-2,0.2-2.2c0.1,0,0.2,0.1,0.3,0.1l0.1,0.1l0.1,0
					c4,1.6,7.6,2.4,10.9,2.4l0.6,0c3.2,0,6.9-0.9,11-2.5l0.1,0l0.1-0.1c0.1,0,0.2-0.1,0.3-0.1c0.1,0.2,0.3,0.9,0.2,2.2
					c-0.3,4.6-8.6,6.5-11.8,6.5H169.4z"/>
				<path class="st1" d="M179.3,262.2c-1.3,2.4-7,3.8-9.5,3.8h-0.3c-2.8,0-8.2-1.6-9.5-3.7c3.3,1.1,6.5,1.7,9.3,1.7l0.1,0
					c0.1,0,0.3,0,0.4,0C172.6,264,175.8,263.4,179.3,262.2 M181.4,257.3c-0.6,0-1.2,0.3-1.4,0.4c-3.9,1.6-7.3,2.4-10.2,2.4
					c-0.1,0-0.2,0-0.4,0l-0.2,0c-3,0-6.4-0.8-10.1-2.3c-0.1-0.1-0.7-0.4-1.4-0.4c-0.7,0-1.2,0.3-1.6,0.9c-0.5,0.7-0.6,1.9-0.5,3.4
					c0.5,6.3,10.4,8.3,13.8,8.3h0.3c3.4,0,13.3-2.1,13.8-8.4c0.1-1.6-0.1-2.7-0.5-3.5C182.6,257.6,182.1,257.3,181.4,257.3
					L181.4,257.3z"/>
			</g>
		</g>
	</g>
</g>
<path class="st18" d="M196.2,284.5c0,0,94.2,0.3,112.5-66.2c0,0,11.1,7.5,2.5,21.7c0,0-31.4,51.8-114.4,50.3
	C196.8,290.3,192.8,285.7,196.2,284.5z"/>
<g>
	<path class="st1" d="M184.8,295.1c-2.6,0-4.8-2.1-4.8-4.8v-5.5c0-2.6,2.1-4.8,4.8-4.8h21.3c2.6,0,4.8,2.1,4.8,4.8v5.5
		c0,2.6-2.1,4.8-4.8,4.8H184.8z"/>
	<path class="st1" d="M206.1,282.1c1.5,0,2.8,1.3,2.8,2.8v5.5c0,1.5-1.3,2.8-2.8,2.8h-21.3c-1.5,0-2.8-1.3-2.8-2.8v-5.5
		c0-1.5,1.3-2.8,2.8-2.8H206.1 M206.1,278.1h-21.3c-3.7,0-6.8,3-6.8,6.8v5.5c0,3.7,3,6.8,6.8,6.8h21.3c3.7,0,6.8-3,6.8-6.8v-5.5
		C212.9,281.2,209.8,278.1,206.1,278.1L206.1,278.1z"/>
</g>
<g>
	<g>
		<path class="st19" d="M82.7,324.8c0.6-1.2,11.3-21.9,1.7-31.5c-9.6-9.6-21.4-8.7-21.4-8.7l4.4,58.2L79,354.5L82.7,324.8z"/>
		<path class="st20" d="M46.4,286.9c8.8,3,28.4,8.5,36.2,15.6c4.5,4.1,4.2,8.5,4.2,8.5l-4.7,7.4l-33.6-26.8L46.4,286.9z"/>
		<path class="st20" d="M178.8,309.2c-9.4-1.9-46.3-5.1-68.8-3.2c-13.5,1.2-26.3,8.9-26.3,8.9l6.4,8.3l91.8-10.6L178.8,309.2z"/>
		<path class="st19" d="M44.3,287c8.8,3,27.4,10.6,35.2,17.7c4.5,4.1,4.2,8.5,4.2,8.5l-4.7,7.4l-26.7-25.6L44.3,287z"/>
		<path class="st19" d="M175.9,309.7c-9.3-1.1-48-1.8-70.5,0.1c-13.5,1.2-27.8,8.2-27.8,8.2l7.8,9.1l91.8-10.6L175.9,309.7z"/>
	</g>
	<path class="st21" d="M182.5,316.4l-0.1-0.7c0,0-0.6-2.1-2.1-2.2c-1.4-0.1-79.5,7.3-83,7.6c-0.1,0-0.2,0-0.2,0
		c-1.2,0.4-12,3.6-15.9,1.5c-3.6-2-4.8-3.5-5-3.9c-0.1-0.1-0.1-0.1-0.2-0.2l-32.8-29.6c-0.2-0.2-0.5-0.3-0.8-0.3
		c-0.6,0-1.8,0.1-2.7,0.2c-0.7,0.1-1.1,0.8-0.9,1.4h0c0,0,0,0.1,0,0.1l13.3,92.9c0,0.3,0.2,0.5,0.4,0.7l32.2,26.9
		c0.1,0.1,0.2,0.2,0.3,0.4c0.2,0.4,0.9,1.3,3.2,3.3c1.1,0.9,2.5,1.2,4.1,1.4c7,1.8,14.7-1.6,16-2.2c0.1-0.1,0.3-0.1,0.4-0.1
		l84.9-6.9c0.7-0.1,1.2-0.7,1.1-1.3L182.5,316.4z"/>
	<path class="st22" d="M99.2,321.6l11.5,90.6c0,0-15.5,7.9-23.5-2.5c-8.1-10.4-11.5-90.6-11.5-90.6S81.8,326.4,99.2,321.6z"/>
	<polygon class="st23" points="75.7,318.9 38.4,287.1 52.4,381.6 87,409.5 	"/>
	<path class="st1" d="M96.6,418.9c-1.6,0-3.1-0.2-4.7-0.5c-2.2-0.2-3.9-0.8-5.2-1.9c-1.9-1.6-3.1-2.8-3.7-3.8l-32-26.7
		c-0.7-0.6-1.2-1.4-1.3-2.3l-13.3-92.9c-0.2-1,0-2,0.5-2.8c0.6-0.8,1.4-1.4,2.4-1.6c1-0.2,2.2-0.3,3.1-0.3c1,0,1.9,0.3,2.6,0.9
		l32.8,29.6c0.2,0.2,0.4,0.4,0.6,0.7c0,0,0.9,1.3,4.2,3.1c1.9,1.1,8.6,0,14-1.6c0.2-0.1,0.5-0.1,0.7-0.1c0.6-0.1,2.9-0.3,6.5-0.6
		c69.6-6.5,76.1-7,76.8-7c2.3,0.2,3.8,2.2,4.3,3.9l0.1,0.3l0.1,0.9l12.1,88.8c0.1,1-0.1,2-0.8,2.8c-0.6,0.8-1.6,1.3-2.6,1.4
		l-84.6,6.9C107.6,416.8,102.4,418.9,96.6,418.9z M109.4,415.9C109.4,415.9,109.4,415.9,109.4,415.9
		C109.4,415.9,109.4,415.9,109.4,415.9z M54.6,382.4l31.8,26.5c0.4,0.3,0.7,0.7,0.9,1.2c0,0,0.4,0.7,2.6,2.5
		c0.5,0.4,1.4,0.7,2.7,0.8l0.4,0.1c6.3,1.6,13.5-1.7,14.3-2.1c0.4-0.2,0.8-0.3,1.3-0.3l83.4-6.8l-12-87.6l0-0.4
		c0-0.1-0.1-0.1-0.1-0.2c-4,0.3-29.5,2.6-75.7,6.9c-3.4,0.3-5.7,0.5-6.4,0.6c-3.9,1.2-13.3,3.6-17.7,1.2c-3.7-2-5.2-3.7-5.8-4.5
		L42,291.2c-0.2,0-0.3,0-0.5,0L54.6,382.4z M54.2,382.1L54.2,382.1C54.2,382.1,54.2,382.1,54.2,382.1z M42.6,291.2
		C42.6,291.2,42.6,291.2,42.6,291.2C42.6,291.2,42.6,291.2,42.6,291.2z"/>
</g>
<g>
	<path class="st0" d="M49.7,377.6c-6.2,0-11.8-6.9-13.4-16.4c-1.7-10.3-3.3-20,0.4-24.5c1.8-2.1,4.8-3.1,9.3-3.2
		c2.9,1.7,16.2,10.1,19,21c1.2,4.5,0.4,8.7-2.2,12.9C58.8,374.1,54.2,377.6,49.7,377.6z"/>
	<path class="st1" d="M45.5,336.1c4.9,3,15,10.5,17.3,19.1c1,3.8,0.4,7.3-1.9,11c-3.6,5.8-7.5,9-11.1,9c-4.9,0-9.6-6.1-10.9-14.3
		c-1.5-9.3-3.1-18.9-0.1-22.5C39.9,337,42.1,336.2,45.5,336.1 M46.6,331.1c-17.6,0-15.5,13.6-12.7,30.6c1.7,10.4,8.2,18.5,15.8,18.5
		c4.9,0,10.3-3.3,15.3-11.3c12.9-20.7-18.3-37.8-18.3-37.8C46.7,331.1,46.6,331.1,46.6,331.1L46.6,331.1z"/>
</g>
<g>
	<path class="st24" d="M116.6,363.7l7.8-0.9l0.6,5.2l-7.8,0.9L116.6,363.7z M124.5,343.1l6.1,4.8l-3.2,4.1l-6.1-4.8L124.5,343.1z
		 M143.6,347.4c2.8-0.3,5.4,0.1,8,1.2c2.5,1.1,4.6,2.8,6.3,5c1.7,2.2,2.7,4.7,3,7.5c0.3,2.8-0.1,5.5-1.2,8c-1.1,2.5-2.8,4.6-5,6.3
		l0.5,4.7c0.1,0.7-0.1,1.4-0.6,2c-0.5,0.6-1,0.9-1.7,1l-10.4,1.2c-0.7,0.1-1.3-0.1-1.9-0.5c-0.6-0.4-0.9-1-1-1.8l-0.5-4.7
		c-2.5-1.1-4.6-2.8-6.3-5c-1.7-2.2-2.7-4.7-3-7.5c-0.3-2.8,0.1-5.5,1.2-8c1.1-2.5,2.8-4.6,5-6.3
		C138.2,348.8,140.7,347.8,143.6,347.4L143.6,347.4z M144.5,378.8l5.2-0.6l-0.6-5.5c2.2-0.8,3.9-2.3,5.2-4.3c1.2-2,1.7-4.2,1.4-6.6
		c-0.2-1.9-0.9-3.5-2-5c-1.1-1.5-2.5-2.6-4.2-3.3c-1.7-0.8-3.5-1-5.3-0.8c-1.9,0.2-3.6,0.9-5,2c-1.5,1.1-2.6,2.5-3.3,4.2
		c-0.8,1.7-1,3.4-0.8,5.3c0.3,2.4,1.2,4.4,2.9,6.1c1.7,1.7,3.7,2.7,6,3L144.5,378.8z M153.2,385.7l0.3,2.6c0.1,0.7-0.1,1.3-0.6,1.9
		c-0.5,0.6-1,0.9-1.7,1l-5.2,0.6c-0.7,0.1-1.3-0.1-1.9-0.5c-0.6-0.4-0.9-1-1-1.7l-0.3-2.6L153.2,385.7z M144.6,334.2l0.9,7.8
		l-5.2,0.6l-0.9-7.8L144.6,334.2z M156.2,345l4.9-6.2l4.1,3.2l-4.9,6.2L156.2,345z M165.7,358l7.8-0.9l0.6,5.2l-7.8,0.9L165.7,358z"
		/>
</g>
</svg>
